<svg width="359" height="191" viewBox="0 0 359 191" fill="none" xmlns="http://www.w3.org/2000/svg">
<path d="M314.987 191H359V0H314.987V19.059H340.137V171.839H314.987V191Z" fill="black"/>
<path d="M286.794 85.868C286.794 76.9192 285.848 68.2777 283.955 59.9437C282.062 51.6096 279.121 44.2661 275.132 37.9131C271.143 31.5601 265.937 26.4709 259.514 22.6454C253.024 18.7516 245.215 16.8047 236.088 16.8047C226.961 16.8047 219.186 18.7516 212.763 22.6454C206.273 26.4709 200.999 31.5601 196.943 37.9131C192.886 44.2661 189.945 51.6096 188.12 59.9437C186.295 68.2777 185.382 76.9192 185.382 85.868C185.382 94.8169 186.295 103.458 188.12 111.792C189.945 120.058 192.853 127.436 196.842 133.925C200.83 140.347 206.07 145.504 212.56 149.398C218.983 153.224 226.826 155.136 236.088 155.136C245.35 155.136 253.227 153.224 259.717 149.398C266.14 145.504 271.38 140.347 275.436 133.925C279.425 127.436 282.298 120.058 284.056 111.792C285.882 103.458 286.794 94.8169 286.794 85.868ZM265.802 85.868C265.802 92.1527 265.396 98.2325 264.585 104.107L212.662 51.4388C214.961 46.7936 218.003 43.0365 221.789 40.1674C225.507 37.2983 230.274 35.8637 236.088 35.8637C245.756 35.8637 253.125 40.2699 258.196 49.0821C263.267 57.8943 265.802 70.1563 265.802 85.868ZM236.088 135.975C230.139 135.975 225.271 134.506 221.485 131.569C217.631 128.631 214.622 124.806 212.459 120.092C210.228 115.31 208.673 109.914 207.794 103.902C206.848 97.8909 206.374 91.8795 206.374 85.868C206.374 80.1298 206.78 74.5283 207.591 69.0633L259.109 121.322C256.81 125.762 253.869 129.314 250.286 131.979C246.635 134.643 241.902 135.975 236.088 135.975Z" fill="black"/>
<path d="M70.3802 86.2779C70.3802 95.3634 71.2929 104.039 73.1184 112.305C74.8762 120.57 77.8171 127.88 81.9412 134.233C85.9977 140.586 91.2712 145.675 97.7616 149.501C104.184 153.258 112.027 155.136 121.289 155.136C130.552 155.136 138.394 153.224 144.817 149.398C151.24 145.504 156.513 140.381 160.637 134.028C164.694 127.675 167.635 120.331 169.46 111.997C171.218 103.663 172.097 95.0218 172.097 86.073C172.097 77.1241 171.218 68.4827 169.46 60.1486C167.635 51.8146 164.694 44.4369 160.637 38.0156C156.513 31.5942 151.24 26.4709 144.817 22.6454C138.394 18.7516 130.552 16.8047 121.289 16.8047C118.653 16.8047 115.948 17.1804 113.176 17.9319C110.404 18.6833 107.768 19.8446 105.266 21.4158C102.765 22.9186 100.567 24.7972 98.6743 27.0515C96.7136 29.3058 95.3277 31.9016 94.5164 34.8391V19.059H75.5523V66.5016H94.5164C94.5164 62.3346 95.1587 58.4067 96.4432 54.7178C97.7278 50.9607 99.5532 47.6817 101.919 44.8809C104.286 42.0801 107.125 39.8941 110.438 38.323C113.751 36.6835 117.368 35.8637 121.289 35.8637C127.239 35.8637 132.107 37.3666 135.893 40.3723C139.679 43.378 142.721 47.2718 145.02 52.0536C147.318 56.8355 148.941 62.198 149.888 68.1411C150.766 74.0842 151.206 80.0615 151.206 86.073C151.206 92.0844 150.766 98.0617 149.888 104.005C148.941 109.948 147.352 115.31 145.121 120.092C142.89 124.806 139.848 128.631 135.994 131.569C132.14 134.506 127.239 135.975 121.289 135.975C112.703 135.975 105.773 133.208 100.5 127.675C95.2263 122.142 91.6092 113.568 89.6486 101.955H117.537V82.8965H70.3802V86.2779Z" fill="black"/>
<path d="M0 191H44.013V171.839H18.8627V19.059H44.013V0H0V191Z" fill="black"/>
</svg>
